<svg viewBox="0 0 229.4499969482422 42.5537109375" xmlns="http://www.w3.org/2000/svg" data-logo="logo">
        <g transform="translate(0, 0.77685546875)
    rotate(0 20 20.5)" id="logogram" style="opacity: 1;"><path fill="#FFF" d="M0 3.13565C0 1.74626 1.1386 0.619934 2.5433 0.619934H6.9739C7.9736 0.619934 8.9425 0.962633 9.7155 1.5897L11.0633 2.68298L11.097 2.71339C11.1281 2.70301 11.1592 2.69287 11.1904 2.68298C13.622 1.91259 16.5722 1.76608 19.5833 1.76608C22.5944 1.76608 25.5446 1.91259 27.9762 2.68298C28.0074 2.69287 28.0385 2.70301 28.0696 2.71339L28.1033 2.68298L29.4511 1.5897C30.2241 0.962633 31.193 0.619934 32.1927 0.619934H36.6233C38.028 0.619934 39.1666 1.74626 39.1666 3.13565V4.69084C39.1666 5.89409 38.6542 7.04168 37.755 7.85208L36.6677 8.83206C36.1369 9.31048 35.4998 9.65866 34.8078 9.84848L34.5506 9.91904C35.5581 12.297 36.1147 14.8388 36.1147 16.895C36.1147 25.1664 30.9408 28.7387 26.382 31.8863C22.7919 34.3651 19.5833 36.5804 19.5833 40.62C19.5833 36.5804 16.3747 34.3651 12.7846 31.8863C8.2258 28.7387 3.0519 25.1664 3.0519 16.895C3.0519 14.8388 3.6085 12.297 4.616 9.91904L4.3588 9.84848C3.6668 9.65866 3.0297 9.31048 2.4989 8.83206L1.4116 7.85208C0.512398 7.04168 0 5.89409 0 4.69084V3.13565ZM22.8896 23.6572C22.8896 24.0524 22.7154 24.4313 22.4054 24.7108C22.0954 24.9902 21.6749 25.1472 21.2364 25.1472C20.8579 25.1472 20.4927 25.0301 20.2005 24.8183C20.6979 26.1353 21.9708 27.3832 23.9069 25.3764C25.6161 23.5117 23.8309 19.5788 22.0917 17.245C21.512 16.4671 20.5603 16.0927 19.5833 16.0927C18.6063 16.0927 17.6546 16.4671 17.0749 17.245C15.3357 19.5788 13.5505 23.5117 15.2597 25.3764C17.1958 27.3832 18.4687 26.1353 18.9661 24.8183C18.6739 25.0301 18.3087 25.1472 17.9302 25.1472C17.4917 25.1472 17.0712 24.9902 16.7612 24.7108C16.4512 24.4313 16.277 24.0524 16.277 23.6572H22.8896ZM13.2526 12.0151H8.6472L12.2767 14.8898C13.0754 15.5223 14.2428 15.3201 14.737 14.4636C15.361 13.3822 14.5322 12.0151 13.2526 12.0151ZM25.914 12.0151H30.5194L26.8899 14.8898C26.0912 15.5223 24.9238 15.3201 24.4296 14.4636C23.8056 13.3822 24.6344 12.0151 25.914 12.0151Z" clip-rule="evenodd" fill-rule="evenodd"></path></g>
        <g transform="translate(46, 0.5)" id="logotype" style="opacity: 1;"><path d="M17.25 34L17.25 34L10.67 34L10.67 29.51L17.01 29.51Q19.47 29.51 21.13 28.63Q22.80 27.76 23.64 25.93Q24.47 24.10 24.47 21.25L24.47 21.25Q24.47 18.41 23.63 16.59Q22.78 14.77 21.13 13.90Q19.48 13.03 17.04 13.03L17.04 13.03L10.55 13.03L10.55 8.54L17.35 8.54Q21.18 8.54 23.94 10.07Q26.70 11.60 28.18 14.44Q29.67 17.29 29.67 21.25L29.67 21.25Q29.67 25.23 28.18 28.09Q26.70 30.94 23.91 32.47Q21.12 34 17.25 34ZM8.31 8.54L13.52 8.54L13.52 34L8.31 34L8.31 8.54ZM39.73 34.38L39.73 34.38Q36.86 34.38 34.76 33.14Q32.66 31.90 31.52 29.68Q30.39 27.47 30.39 24.53L30.39 24.53Q30.39 21.56 31.52 19.35Q32.66 17.13 34.76 15.89Q36.86 14.65 39.73 14.65L39.73 14.65Q42.62 14.65 44.71 15.89Q46.81 17.13 47.94 19.35Q49.08 21.56 49.08 24.53L49.08 24.53Q49.08 27.47 47.94 29.68Q46.81 31.90 44.71 33.14Q42.62 34.38 39.73 34.38ZM39.73 30.34L39.73 30.34Q41.10 30.34 42.02 29.58Q42.95 28.82 43.41 27.50Q43.87 26.17 43.87 24.52L43.87 24.52Q43.87 22.82 43.41 21.51Q42.95 20.19 42.02 19.44Q41.10 18.69 39.73 18.69L39.73 18.69Q38.37 18.69 37.45 19.44Q36.54 20.19 36.08 21.51Q35.61 22.82 35.61 24.52L35.61 24.52Q35.61 26.17 36.08 27.50Q36.54 28.82 37.45 29.58Q38.37 30.34 39.73 30.34ZM57.37 34.32L57.37 34.32Q55.16 34.32 53.39 33.19Q51.63 32.05 50.60 29.86Q49.58 27.66 49.58 24.48L49.58 24.48Q49.58 21.22 50.63 19.03Q51.69 16.84 53.45 15.75Q55.21 14.65 57.33 14.65L57.33 14.65Q58.96 14.65 60.03 15.20Q61.11 15.75 61.78 16.55Q62.44 17.35 62.77 18.11L62.77 18.11L62.94 18.11L62.94 8.54L68.07 8.54L68.07 34L63.02 34L63.02 30.94L62.77 30.94Q62.43 31.71 61.75 32.49Q61.08 33.27 60.00 33.79Q58.92 34.32 57.37 34.32ZM58.94 30.21L58.94 30.21Q60.24 30.21 61.16 29.49Q62.08 28.77 62.56 27.48Q63.04 26.19 63.04 24.46L63.04 24.46Q63.04 22.72 62.57 21.45Q62.10 20.17 61.18 19.47Q60.26 18.76 58.94 18.76L58.94 18.76Q57.59 18.76 56.68 19.49Q55.76 20.23 55.30 21.51Q54.84 22.79 54.84 24.46L54.84 24.46Q54.84 26.14 55.31 27.44Q55.78 28.74 56.69 29.47Q57.61 30.21 58.94 30.21ZM78.64 41.55L78.64 41.55Q76.27 41.55 74.49 40.95Q72.71 40.34 71.60 39.28Q70.49 38.22 70.06 36.87L70.06 36.87L74.47 35.64Q74.71 36.17 75.22 36.67Q75.72 37.18 76.56 37.50Q77.40 37.83 78.63 37.83L78.63 37.83Q80.59 37.83 81.71 36.93Q82.83 36.03 82.83 34.14L82.83 34.14L82.83 30.62L82.44 30.62Q82.09 31.39 81.45 32.10Q80.80 32.82 79.75 33.27Q78.69 33.73 77.14 33.73L77.14 33.73Q74.99 33.73 73.23 32.72Q71.47 31.71 70.41 29.64Q69.36 27.57 69.36 24.41L69.36 24.41Q69.36 21.18 70.43 19.01Q71.50 16.84 73.27 15.75Q75.04 14.65 77.16 14.65L77.16 14.65Q78.76 14.65 79.86 15.19Q80.95 15.73 81.62 16.54Q82.30 17.35 82.64 18.11L82.64 18.11L82.86 18.11L82.86 14.89L87.91 14.89L87.91 33.85Q87.91 36.43 86.72 38.14Q85.53 39.86 83.45 40.71Q81.36 41.55 78.64 41.55ZM78.75 29.83L78.75 29.83Q80.06 29.83 80.98 29.18Q81.89 28.53 82.37 27.31Q82.85 26.09 82.85 24.38L82.85 24.38Q82.85 22.69 82.37 21.42Q81.89 20.16 80.98 19.46Q80.06 18.76 78.75 18.76L78.75 18.76Q77.40 18.76 76.48 19.48Q75.57 20.21 75.10 21.47Q74.63 22.74 74.63 24.38L74.63 24.38Q74.63 26.05 75.10 27.28Q75.57 28.50 76.49 29.16Q77.41 29.83 78.75 29.83ZM98.64 34.38L98.64 34.38Q95.71 34.38 93.59 33.18Q91.48 31.98 90.34 29.78Q89.20 27.57 89.20 24.55L89.20 24.55Q89.20 21.59 90.33 19.37Q91.46 17.15 93.53 15.90Q95.59 14.65 98.38 14.65L98.38 14.65Q100.26 14.65 101.88 15.25Q103.51 15.85 104.74 17.06Q105.97 18.26 106.66 20.07Q107.35 21.88 107.35 24.34L107.35 24.34L107.35 25.78L91.30 25.78L91.30 22.57L104.84 22.57L102.45 23.42Q102.45 21.93 101.99 20.83Q101.54 19.73 100.64 19.12Q99.75 18.52 98.41 18.52L98.41 18.52Q97.10 18.52 96.17 19.13Q95.23 19.75 94.76 20.80Q94.28 21.85 94.28 23.20L94.28 23.20L94.28 25.47Q94.28 27.13 94.83 28.26Q95.39 29.39 96.39 29.95Q97.39 30.51 98.72 30.51L98.72 30.51Q99.63 30.51 100.36 30.26Q101.10 30.00 101.62 29.50Q102.14 28.99 102.41 28.26L102.41 28.26L107.06 29.13Q106.60 30.70 105.45 31.89Q104.31 33.08 102.59 33.73Q100.87 34.38 98.64 34.38ZM131.79 34L114.71 34L114.71 8.54L131.75 8.54L131.75 12.86L119.93 12.86L119.93 19.01L130.85 19.01L130.85 23.27L119.93 23.27L119.93 29.68L131.79 29.68L131.79 34ZM133.58 8.54L138.71 8.54L138.71 34L133.58 34L133.58 8.54ZM138.94 14.89L151.42 14.89L151.42 18.81L138.94 18.81L138.94 14.89ZM147.42 34L142.31 34L142.31 13.42Q142.31 11.39 143.12 10.04Q143.93 8.69 145.33 8.01Q146.74 7.34 148.51 7.34L148.51 7.34Q149.73 7.34 150.73 7.54Q151.73 7.73 152.19 7.87L152.19 7.87L151.26 11.73Q150.94 11.65 150.50 11.56Q150.07 11.48 149.56 11.48L149.56 11.48Q148.39 11.48 147.91 12.03Q147.42 12.59 147.42 13.59L147.42 13.59L147.42 34ZM157.57 34L152.44 34L152.44 14.89L157.40 14.89L157.40 18.23L157.60 18.23Q158.13 16.45 159.37 15.54Q160.61 14.64 162.22 14.64L162.22 14.64Q162.61 14.64 163.06 14.68Q163.52 14.72 163.87 14.81L163.87 14.81L163.87 19.39Q163.53 19.27 162.88 19.20Q162.23 19.13 161.65 19.13L161.65 19.13Q160.49 19.13 159.55 19.64Q158.61 20.14 158.09 21.04Q157.57 21.93 157.57 23.13L157.57 23.13L157.57 34ZM164.28 40.77L164.28 40.77L165.46 36.91L166.09 37.06Q167.12 37.33 167.92 37.21Q168.73 37.09 169.21 36.56Q169.70 36.03 169.80 35.08L169.80 35.08L169.94 34.05L162.76 14.89L168.21 14.89L171.43 24.81Q172.01 26.69 172.37 28.57Q172.74 30.45 173.22 32.50L173.22 32.50L172.02 32.50Q172.49 30.45 172.95 28.56Q173.41 26.67 174.02 24.81L174.02 24.81L177.37 14.89L182.76 14.89L174.64 36.26Q174.06 37.79 173.15 38.92Q172.25 40.05 170.90 40.67Q169.55 41.28 167.63 41.28L167.63 41.28Q166.61 41.28 165.72 41.14Q164.83 40.99 164.28 40.77Z" fill="#ffffff"></path></g>
        
      </svg>